<svg width="200" height="53" viewBox="0 0 200 53" fill="none" xmlns="http://www.w3.org/2000/svg">
<path d="M74.702 38.014C74.2033 38.422 73.5913 38.728 72.866 38.932C72.1633 39.136 71.4153 39.238 70.622 39.238C68.6273 39.238 67.086 38.7167 65.998 37.674C64.91 36.6313 64.366 35.1127 64.366 33.118V24.38H61.374V20.98H64.366V16.832H68.616V20.98H73.478V24.38H68.616V33.016C68.616 33.9 68.8313 34.58 69.262 35.056C69.6927 35.5093 70.316 35.736 71.132 35.736C72.084 35.736 72.8773 35.4867 73.512 34.988L74.702 38.014ZM85.7605 39.238C83.9245 39.238 82.2698 38.8413 80.7965 38.048C79.3232 37.2547 78.1672 36.1553 77.3285 34.75C76.5125 33.322 76.1045 31.7127 76.1045 29.922C76.1045 28.1313 76.5125 26.5333 77.3285 25.128C78.1672 23.7227 79.3232 22.6233 80.7965 21.83C82.2698 21.0367 83.9245 20.64 85.7605 20.64C87.6192 20.64 89.2852 21.0367 90.7585 21.83C92.2318 22.6233 93.3765 23.7227 94.1925 25.128C95.0312 26.5333 95.4505 28.1313 95.4505 29.922C95.4505 31.7127 95.0312 33.322 94.1925 34.75C93.3765 36.1553 92.2318 37.2547 90.7585 38.048C89.2852 38.8413 87.6192 39.238 85.7605 39.238ZM85.7605 35.6C87.3245 35.6 88.6165 35.0787 89.6365 34.036C90.6565 32.9933 91.1665 31.622 91.1665 29.922C91.1665 28.222 90.6565 26.8507 89.6365 25.808C88.6165 24.7653 87.3245 24.244 85.7605 24.244C84.1965 24.244 82.9045 24.7653 81.8845 25.808C80.8872 26.8507 80.3885 28.222 80.3885 29.922C80.3885 31.622 80.8872 32.9933 81.8845 34.036C82.9045 35.0787 84.1965 35.6 85.7605 35.6ZM107.675 39.238C105.839 39.238 104.184 38.8413 102.711 38.048C101.237 37.2547 100.081 36.1553 99.2426 34.75C98.4266 33.322 98.0186 31.7127 98.0186 29.922C98.0186 28.1313 98.4266 26.5333 99.2426 25.128C100.081 23.7227 101.237 22.6233 102.711 21.83C104.184 21.0367 105.839 20.64 107.675 20.64C109.533 20.64 111.199 21.0367 112.673 21.83C114.146 22.6233 115.291 23.7227 116.107 25.128C116.945 26.5333 117.365 28.1313 117.365 29.922C117.365 31.7127 116.945 33.322 116.107 34.75C115.291 36.1553 114.146 37.2547 112.673 38.048C111.199 38.8413 109.533 39.238 107.675 39.238ZM107.675 35.6C109.239 35.6 110.531 35.0787 111.551 34.036C112.571 32.9933 113.081 31.622 113.081 29.922C113.081 28.222 112.571 26.8507 111.551 25.808C110.531 24.7653 109.239 24.244 107.675 24.244C106.111 24.244 104.819 24.7653 103.799 25.808C102.801 26.8507 102.303 28.222 102.303 29.922C102.303 31.622 102.801 32.9933 103.799 34.036C104.819 35.0787 106.111 35.6 107.675 35.6ZM121.429 13.772H125.679V39H121.429V13.772ZM141.321 20.64C143.089 20.64 144.664 21.0253 146.047 21.796C147.452 22.5667 148.551 23.6547 149.345 25.06C150.138 26.4653 150.535 28.086 150.535 29.922C150.535 31.758 150.138 33.39 149.345 34.818C148.551 36.2233 147.452 37.3113 146.047 38.082C144.664 38.8527 143.089 39.238 141.321 39.238C140.074 39.238 138.929 39.0227 137.887 38.592C136.867 38.1613 136.005 37.5153 135.303 36.654V39H131.257V13.772H135.507V23.054C136.232 22.2607 137.082 21.66 138.057 21.252C139.054 20.844 140.142 20.64 141.321 20.64ZM140.845 35.6C142.409 35.6 143.689 35.0787 144.687 34.036C145.707 32.9933 146.217 31.622 146.217 29.922C146.217 28.222 145.707 26.8507 144.687 25.808C143.689 24.7653 142.409 24.244 140.845 24.244C139.825 24.244 138.907 24.482 138.091 24.958C137.275 25.4113 136.629 26.0687 136.153 26.93C135.677 27.7913 135.439 28.7887 135.439 29.922C135.439 31.0553 135.677 32.0527 136.153 32.914C136.629 33.7753 137.275 34.444 138.091 34.92C138.907 35.3733 139.825 35.6 140.845 35.6ZM162.725 39.238C160.889 39.238 159.235 38.8413 157.761 38.048C156.288 37.2547 155.132 36.1553 154.293 34.75C153.477 33.322 153.069 31.7127 153.069 29.922C153.069 28.1313 153.477 26.5333 154.293 25.128C155.132 23.7227 156.288 22.6233 157.761 21.83C159.235 21.0367 160.889 20.64 162.725 20.64C164.584 20.64 166.25 21.0367 167.723 21.83C169.197 22.6233 170.341 23.7227 171.157 25.128C171.996 26.5333 172.415 28.1313 172.415 29.922C172.415 31.7127 171.996 33.322 171.157 34.75C170.341 36.1553 169.197 37.2547 167.723 38.048C166.25 38.8413 164.584 39.238 162.725 39.238ZM162.725 35.6C164.289 35.6 165.581 35.0787 166.601 34.036C167.621 32.9933 168.131 31.622 168.131 29.922C168.131 28.222 167.621 26.8507 166.601 25.808C165.581 24.7653 164.289 24.244 162.725 24.244C161.161 24.244 159.869 24.7653 158.849 25.808C157.852 26.8507 157.353 28.222 157.353 29.922C157.353 31.622 157.852 32.9933 158.849 34.036C159.869 35.0787 161.161 35.6 162.725 35.6ZM187.442 39L182.784 32.71L178.092 39H173.4L180.472 29.786L173.706 20.844H178.432L182.886 26.794L187.34 20.844H191.93L185.13 29.718L192.236 39H187.442Z" fill="#414141"/>
<path d="M45.6 19.72C47.52 19.72 49.28 20.1867 50.88 21.12C52.5067 22.0267 53.7867 23.3467 54.72 25.08C55.68 26.7867 56.16 28.7733 56.16 31.04C56.16 33.3067 55.68 35.3067 54.72 37.04C53.7867 38.7733 52.5067 40.1067 50.88 41.04C49.28 41.9467 47.52 42.4 45.6 42.4C42.9067 42.4 40.9067 41.6667 39.6 40.2V42H31V12.32H40.04V21.6C41.32 20.3467 43.1733 19.72 45.6 19.72ZM43.44 35.36C44.48 35.36 45.3333 34.9867 46 34.24C46.6667 33.4667 47 32.4 47 31.04C47 29.68 46.6667 28.6267 46 27.88C45.3333 27.1333 44.48 26.76 43.44 26.76C42.4 26.76 41.5467 27.1333 40.88 27.88C40.2133 28.6267 39.88 29.68 39.88 31.04C39.88 32.4 40.2133 33.4667 40.88 34.24C41.5467 34.9867 42.4 35.36 43.44 35.36Z" fill="#E927FF"/>
<path d="M30.932 41.164C29.436 42.0147 27.3973 42.44 24.816 42.44C21.4427 42.44 18.8467 41.6333 17.028 40.02C15.2093 38.3773 14.3 35.928 14.3 32.672V26.512H11V19.252H14.3V12.52H24.244V19.252H29.172V26.512H24.244V32.584C24.244 33.3173 24.4347 33.8893 24.816 34.3C25.1973 34.7107 25.696 34.916 26.312 34.916C27.1627 34.916 27.9107 34.696 28.556 34.256L30.932 41.164Z" fill="#27D0FF"/>
</svg>
